{
  "accessors": [
    {
      "bufferView": 2,
      "componentType": 5126,
      "count": 544,
      "max": [
        2.974813461303711,
        1.1362580060958862,
        1.7473219633102417
      ],
      "min": [
        -2.9748144149780273,
        -1.115963101387024,
        -2.7003912925720215
      ],
      "type": "VEC3",
      "byteOffset": 0
    },
    {
      "bufferView": 2,
      "byteOffset": 6528,
      "componentType": 5126,
      "count": 544,
      "max": [
        1,
        0.9999999403953552,
        1
      ],
      "min": [
        -1,
        -0.9905374050140381,
        -1
      ],
      "type": "VEC3"
    },
    {
      "bufferView": 1,
      "componentType": 5126,
      "count": 544,
      "max": [
        0.5462009906768799,
        0.8466626405715942
      ],
      "min": [
        0.49925488233566284,
        0.18289819359779358
      ],
      "type": "VEC2",
      "byteOffset": 0
    },
    {
      "bufferView": 0,
      "componentType": 5125,
      "count": 1434,
      "type": "SCALAR",
      "byteOffset": 0
    },
    {
      "bufferView": 2,
      "byteOffset": 13056,
      "componentType": 5126,
      "count": 34,
      "max": [
        0.38897666335105896,
        0.3571564555168152,
        1.787880301475525
      ],
      "min": [
        -0.38897594809532166,
        -0.048895012587308884,
        0
      ],
      "type": "VEC3"
    },
    {
      "bufferView": 2,
      "byteOffset": 13464,
      "componentType": 5126,
      "count": 34,
      "max": [
        0.9132537245750427,
        0.9967815279960632,
        0.997613251209259
      ],
      "min": [
        -0.9132536053657532,
        -0.9964091777801514,
        -0.9610497355461121
      ],
      "type": "VEC3"
    },
    {
      "bufferView": 1,
      "byteOffset": 4352,
      "componentType": 5126,
      "count": 34,
      "max": [
        0.4992549419403076,
        0.5702028274536133
      ],
      "min": [
        0.4992549419403076,
        0.5702028274536133
      ],
      "type": "VEC2"
    },
    {
      "bufferView": 0,
      "byteOffset": 5736,
      "componentType": 5125,
      "count": 192,
      "type": "SCALAR"
    },
    {
      "bufferView": 2,
      "byteOffset": 13872,
      "componentType": 5126,
      "count": 143,
      "max": [
        1.1733200550079346,
        0.9076930284500122,
        0.2126210629940033
      ],
      "min": [
        -1.2969332933425903,
        -1.3665138483047485,
        -0.26048973202705383
      ],
      "type": "VEC3"
    },
    {
      "bufferView": 2,
      "byteOffset": 15588,
      "componentType": 5126,
      "count": 143,
      "max": [
        0.9938589930534363,
        0.9724678993225098,
        0.9819222688674927
      ],
      "min": [
        -0.9938579797744751,
        -0.9940880537033081,
        -0.9819222688674927
      ],
      "type": "VEC3"
    },
    {
      "bufferView": 1,
      "byteOffset": 4624,
      "componentType": 5126,
      "count": 143,
      "max": [
        0.4999999403953552,
        0.6275812387466431
      ],
      "min": [
        0.49999991059303284,
        0.18420225381851196
      ],
      "type": "VEC2"
    },
    {
      "bufferView": 0,
      "byteOffset": 6504,
      "componentType": 5125,
      "count": 282,
      "type": "SCALAR"
    },
    {
      "bufferView": 2,
      "byteOffset": 17304,
      "componentType": 5126,
      "count": 76,
      "max": [
        0.16768686473369598,
        0.07261379063129425,
        0.2203461229801178
      ],
      "min": [
        -0.16819632053375244,
        -0.07832873612642288,
        -0.1976371705532074
      ],
      "type": "VEC3"
    },
    {
      "bufferView": 2,
      "byteOffset": 18216,
      "componentType": 5126,
      "count": 76,
      "max": [
        0.9904840588569641,
        0.9997468590736389,
        1
      ],
      "min": [
        -0.9904845356941223,
        -0.9958314299583435,
        -1
      ],
      "type": "VEC3"
    },
    {
      "bufferView": 1,
      "byteOffset": 5768,
      "componentType": 5126,
      "count": 76,
      "max": [
        0.5,
        0.6262772083282471
      ],
      "min": [
        0.4992549419403076,
        0.18224620819091797
      ],
      "type": "VEC2"
    },
    {
      "bufferView": 0,
      "byteOffset": 7632,
      "componentType": 5125,
      "count": 204,
      "type": "SCALAR"
    },
    {
      "bufferView": 2,
      "byteOffset": 19128,
      "componentType": 5126,
      "count": 76,
      "max": [
        0.16793474555015564,
        0.07226773351430893,
        0.2203461080789566
      ],
      "min": [
        -0.16840191185474396,
        -0.07799044251441956,
        -0.19763711094856262
      ],
      "type": "VEC3"
    },
    {
      "bufferView": 2,
      "byteOffset": 20040,
      "componentType": 5126,
      "count": 76,
      "max": [
        0.9918215274810791,
        0.999506950378418,
        1
      ],
      "min": [
        -0.9918219447135925,
        -0.9967556595802307,
        -1
      ],
      "type": "VEC3"
    },
    {
      "bufferView": 1,
      "byteOffset": 6376,
      "componentType": 5126,
      "count": 76,
      "max": [
        0.5,
        0.6262772083282471
      ],
      "min": [
        0.4992549419403076,
        0.18224620819091797
      ],
      "type": "VEC2"
    },
    {
      "bufferView": 0,
      "byteOffset": 8448,
      "componentType": 5125,
      "count": 204,
      "type": "SCALAR"
    },
    {
      "bufferView": 2,
      "byteOffset": 20952,
      "componentType": 5126,
      "count": 76,
      "max": [
        0.16819612681865692,
        0.07261378318071365,
        0.2203461229801178
      ],
      "min": [
        -0.16768702864646912,
        -0.07832874357700348,
        -0.1976371705532074
      ],
      "type": "VEC3"
    },
    {
      "bufferView": 2,
      "byteOffset": 21864,
      "componentType": 5126,
      "count": 76,
      "max": [
        0.9904851913452148,
        0.9997468590736389,
        1
      ],
      "min": [
        -0.9904852509498596,
        -0.9958314895629883,
        -1
      ],
      "type": "VEC3"
    },
    {
      "bufferView": 1,
      "byteOffset": 6984,
      "componentType": 5126,
      "count": 76,
      "max": [
        0.5,
        0.6262772083282471
      ],
      "min": [
        0.4992549419403076,
        0.18224620819091797
      ],
      "type": "VEC2"
    },
    {
      "bufferView": 0,
      "byteOffset": 9264,
      "componentType": 5125,
      "count": 204,
      "type": "SCALAR"
    },
    {
      "bufferView": 2,
      "byteOffset": 22776,
      "componentType": 5126,
      "count": 76,
      "max": [
        0.16840201616287231,
        0.07226774841547012,
        0.2203461080789566
      ],
      "min": [
        -0.1679346263408661,
        -0.07799045741558075,
        -0.19763709604740143
      ],
      "type": "VEC3"
    },
    {
      "bufferView": 2,
      "byteOffset": 23688,
      "componentType": 5126,
      "count": 76,
      "max": [
        0.9918226599693298,
        0.9995070099830627,
        1
      ],
      "min": [
        -0.9918226003646851,
        -0.9967555999755859,
        -1
      ],
      "type": "VEC3"
    },
    {
      "bufferView": 1,
      "byteOffset": 7592,
      "componentType": 5126,
      "count": 76,
      "max": [
        0.5,
        0.6262772083282471
      ],
      "min": [
        0.4992549419403076,
        0.18224620819091797
      ],
      "type": "VEC2"
    },
    {
      "bufferView": 0,
      "byteOffset": 10080,
      "componentType": 5125,
      "count": 204,
      "type": "SCALAR"
    },
    {
      "bufferView": 3,
      "componentType": 5126,
      "count": 31,
      "max": [
        1
      ],
      "min": [
        0
      ],
      "type": "SCALAR",
      "byteOffset": 0
    },
    {
      "bufferView": 4,
      "componentType": 5126,
      "count": 31,
      "max": [
        0,
        0,
        0.9999904632568359,
        1
      ],
      "min": [
        0,
        0,
        -0.8125924468040466,
        -0.4949531853199005
      ],
      "type": "VEC4",
      "byteOffset": 0
    }
  ],
  "animations": [
    {
      "channels": [
        {
          "sampler": 0,
          "target": {
            "node": 8,
            "path": "rotation"
          }
        }
      ],
      "name": "PropellerAction.001",
      "samplers": [
        {
          "input": 28,
          "interpolation": "LINEAR",
          "output": 29
        }
      ]
    }
  ],
  "asset": {
    "extras": {
      "author": "Spark (https://sketchfab.com/muammar.yacoob)",
      "license": "CC-BY-4.0 (http://creativecommons.org/licenses/by/4.0/)",
      "source": "https://sketchfab.com/3d-models/low-poly-toon-plane-3ec74852d7e8472698f6c896db6021c5",
      "title": "Low Poly Toon Plane"
    },
    "generator": "Sketchfab-12.73.0",
    "version": "2.0"
  },
  "bufferViews": [
    {
      "buffer": 0,
      "byteLength": 10896,
      "name": "floatBufferViews",
      "target": 34963,
      "byteOffset": 0
    },
    {
      "buffer": 0,
      "byteLength": 8200,
      "byteOffset": 10896,
      "byteStride": 8,
      "name": "floatBufferViews",
      "target": 34962
    },
    {
      "buffer": 0,
      "byteLength": 24600,
      "byteOffset": 19096,
      "byteStride": 12,
      "name": "floatBufferViews",
      "target": 34962
    },
    {
      "buffer": 0,
      "byteLength": 124,
      "byteOffset": 43696,
      "name": "floatBufferViews"
    },
    {
      "buffer": 0,
      "byteLength": 496,
      "byteOffset": 43820,
      "byteStride": 16,
      "name": "floatBufferViews"
    },
    {
      "buffer": 0,
      "byteOffset": 44316,
      "byteLength": 776
    },
    {
      "buffer": 0,
      "byteOffset": 45092,
      "byteLength": 73
    }
  ],
  "buffers": [
    {
      "name": "low_poly_toon_plane",
      "byteLength": 45168,
      "uri": "data:application/octet-stream;base64,"
    }
  ],
  "extensionsUsed": [
    "KHR_materials_clearcoat"
  ],
  "images": [
    {
      "bufferView": 5,
      "mimeType": "image/png"
    },
    {
      "bufferView": 6,
      "mimeType": "image/png"
    }
  ],
  "materials": [
    {
      "doubleSided": true,
      "name": "Plane",
      "pbrMetallicRoughness": {
        "baseColorTexture": {
          "index": 0,
          "texCoord": 0
        },
        "metallicFactor": 0,
        "roughnessFactor": 0.37203211547464865,
        "baseColorFactor": [
          1,
          1,
          1,
          1
        ]
      },
      "emissiveFactor": [
        0,
        0,
        0
      ],
      "alphaMode": "OPAQUE"
    },
    {
      "alphaMode": "BLEND",
      "extensions": {
        "KHR_materials_clearcoat": {
          "clearcoatFactor": 1,
          "clearcoatRoughnessFactor": 0.04
        }
      },
      "name": "Glass",
      "pbrMetallicRoughness": {
        "baseColorFactor": [
          0.12111899999999999,
          0.5098719999999999,
          0.7999999999999999,
          1
        ],
        "baseColorTexture": {
          "index": 1,
          "texCoord": 0
        },
        "metallicFactor": 0,
        "roughnessFactor": 0.8997860623403069
      },
      "emissiveFactor": [
        0,
        0,
        0
      ],
      "doubleSided": false
    }
  ],
  "meshes": [
    {
      "name": "PlaneBody_Plane_0",
      "primitives": [
        {
          "attributes": {
            "NORMAL": 1,
            "POSITION": 0,
            "TEXCOORD_0": 2
          },
          "indices": 3,
          "material": 0,
          "mode": 4
        }
      ]
    },
    {
      "name": "Cockpit_Glass_0",
      "primitives": [
        {
          "attributes": {
            "NORMAL": 5,
            "POSITION": 4,
            "TEXCOORD_0": 6
          },
          "indices": 7,
          "material": 1,
          "mode": 4
        }
      ]
    },
    {
      "name": "Propeller_Plane_0",
      "primitives": [
        {
          "attributes": {
            "NORMAL": 9,
            "POSITION": 8,
            "TEXCOORD_0": 10
          },
          "indices": 11,
          "material": 0,
          "mode": 4
        }
      ]
    },
    {
      "name": "Missile2_Plane_0",
      "primitives": [
        {
          "attributes": {
            "NORMAL": 13,
            "POSITION": 12,
            "TEXCOORD_0": 14
          },
          "indices": 15,
          "material": 0,
          "mode": 4
        }
      ]
    },
    {
      "name": "Missile1_Plane_0",
      "primitives": [
        {
          "attributes": {
            "NORMAL": 17,
            "POSITION": 16,
            "TEXCOORD_0": 18
          },
          "indices": 19,
          "material": 0,
          "mode": 4
        }
      ]
    },
    {
      "name": "Missile3_Plane_0",
      "primitives": [
        {
          "attributes": {
            "NORMAL": 21,
            "POSITION": 20,
            "TEXCOORD_0": 22
          },
          "indices": 23,
          "material": 0,
          "mode": 4
        }
      ]
    },
    {
      "name": "Missile4_Plane_0",
      "primitives": [
        {
          "attributes": {
            "NORMAL": 25,
            "POSITION": 24,
            "TEXCOORD_0": 26
          },
          "indices": 27,
          "material": 0,
          "mode": 4
        }
      ]
    }
  ],
  "nodes": [
    {
      "children": [
        1
      ],
      "matrix": [
        1,
        0,
        0,
        0,
        0,
        2.220446049250313e-16,
        -1,
        0,
        0,
        1,
        2.220446049250313e-16,
        0,
        0,
        0,
        0,
        1
      ],
      "name": "Sketchfab_model"
    },
    {
      "children": [
        2
      ],
      "matrix": [
        1,
        0,
        0,
        0,
        0,
        0,
        1,
        0,
        0,
        -1,
        0,
        0,
        0,
        0,
        0,
        1
      ],
      "name": "8bb76f45372a4765a7d44097319fb390.fbx"
    },
    {
      "children": [
        3
      ],
      "name": "Object_2"
    },
    {
      "children": [
        4
      ],
      "name": "RootNode"
    },
    {
      "children": [
        5,
        6,
        8,
        10,
        12,
        14,
        16
      ],
      "name": "PlaneBody"
    },
    {
      "mesh": 0,
      "name": "PlaneBody_Plane_0"
    },
    {
      "children": [
        7
      ],
      "name": "Cockpit",
      "translation": [
        -6.234303100427496e-7,
        0.5114662051200867,
        -1.1833809614181519
      ],
      "rotation": [
        0,
        0,
        0,
        1
      ],
      "scale": [
        1,
        1,
        1
      ]
    },
    {
      "mesh": 1,
      "name": "Cockpit_Glass_0"
    },
    {
      "children": [
        9
      ],
      "name": "Propeller",
      "translation": [
        3.2980068453980493e-7,
        -0.26809781789779663,
        1.8750817775726318
      ],
      "rotation": [
        0,
        0,
        0,
        1
      ],
      "scale": [
        1,
        1,
        1
      ]
    },
    {
      "mesh": 2,
      "name": "Propeller_Plane_0"
    },
    {
      "children": [
        11
      ],
      "name": "Missile2",
      "translation": [
        1.885486364364624,
        -0.047193244099617004,
        0.41035401821136475
      ],
      "rotation": [
        0,
        0,
        0,
        1
      ],
      "scale": [
        1,
        1,
        1
      ]
    },
    {
      "mesh": 3,
      "name": "Missile2_Plane_0"
    },
    {
      "children": [
        13
      ],
      "name": "Missile1",
      "translation": [
        2.266080379486084,
        0.007693767547607422,
        0.4103538990020752
      ],
      "rotation": [
        0,
        0,
        0,
        1
      ],
      "scale": [
        1,
        1,
        1
      ]
    },
    {
      "mesh": 4,
      "name": "Missile1_Plane_0"
    },
    {
      "children": [
        15
      ],
      "name": "Missile3",
      "translation": [
        -1.8854867219924927,
        -0.04719321429729462,
        0.41035521030426025
      ],
      "rotation": [
        0,
        0,
        0,
        1
      ],
      "scale": [
        1,
        1,
        1
      ]
    },
    {
      "mesh": 5,
      "name": "Missile3_Plane_0"
    },
    {
      "children": [
        17
      ],
      "name": "Missile4",
      "translation": [
        -2.266080141067505,
        0.007693767547607422,
        0.41035544872283936
      ],
      "rotation": [
        0,
        0,
        0,
        1
      ],
      "scale": [
        1,
        1,
        1
      ]
    },
    {
      "mesh": 6,
      "name": "Missile4_Plane_0"
    }
  ],
  "samplers": [
    {
      "magFilter": 9729,
      "minFilter": 9987,
      "wrapS": 10497,
      "wrapT": 10497
    }
  ],
  "scene": 0,
  "scenes": [
    {
      "name": "Sketchfab_Scene",
      "nodes": [
        0
      ]
    }
  ],
  "textures": [
    {
      "sampler": 0,
      "source": 0
    },
    {
      "sampler": 0,
      "source": 1
    }
  ]
}
