{
  "accessors": [
    {
      "bufferView": 2,
      "componentType": 5126,
      "count": 1615,
      "max": [
        1.1155403852462769,
        3.1401171684265137,
        0.5262980461120605
      ],
      "min": [
        -1.1155403852462769,
        -0.01777832955121994,
        -0.475222110748291
      ],
      "type": "VEC3",
      "byteOffset": 0
    },
    {
      "bufferView": 2,
      "byteOffset": 19380,
      "componentType": 5126,
      "count": 1615,
      "max": [
        1,
        1,
        1
      ],
      "min": [
        -1,
        -1,
        -1
      ],
      "type": "VEC3"
    },
    {
      "bufferView": 1,
      "componentType": 5126,
      "count": 1615,
      "max": [
        0.5478624105453491,
        0.9877786636352539
      ],
      "min": [
        0.27393120527267456,
        0.14923711121082306
      ],
      "type": "VEC2",
      "byteOffset": 0
    },
    {
      "bufferView": 0,
      "componentType": 5125,
      "count": 3432,
      "type": "SCALAR",
      "byteOffset": 0
    },
    {
      "bufferView": 2,
      "byteOffset": 38760,
      "componentType": 5126,
      "count": 1278,
      "max": [
        0.9107956886291504,
        1.2164791822433472,
        0.04509331285953522
      ],
      "min": [
        -0.6347546577453613,
        -0.7850522994995117,
        -0.0714583694934845
      ],
      "type": "VEC3"
    },
    {
      "bufferView": 2,
      "byteOffset": 54096,
      "componentType": 5126,
      "count": 1278,
      "max": [
        0.9999650716781616,
        0.9999949932098389,
        1
      ],
      "min": [
        -0.999855101108551,
        -0.9960492253303528,
        -1
      ],
      "type": "VEC3"
    },
    {
      "bufferView": 1,
      "byteOffset": 12920,
      "componentType": 5126,
      "count": 1278,
      "max": [
        0.5000002980232239,
        0.9583462476730347
      ],
      "min": [
        0.4464564621448517,
        0.14862219989299774
      ],
      "type": "VEC2"
    },
    {
      "bufferView": 0,
      "byteOffset": 13728,
      "componentType": 5125,
      "count": 2580,
      "type": "SCALAR"
    },
    {
      "bufferView": 2,
      "byteOffset": 69432,
      "componentType": 5126,
      "count": 150,
      "max": [
        1.0770529508590698,
        3.346912145614624,
        1.167611837387085
      ],
      "min": [
        -1.0770529508590698,
        2.666229724884033,
        -1.188830852508545
      ],
      "type": "VEC3"
    },
    {
      "bufferView": 2,
      "byteOffset": 71232,
      "componentType": 5126,
      "count": 150,
      "max": [
        0.9263279438018799,
        1,
        0.8030728101730347
      ],
      "min": [
        -0.9263279438018799,
        -0.9993883967399597,
        -0.7911216020584106
      ],
      "type": "VEC3"
    },
    {
      "bufferView": 1,
      "byteOffset": 23144,
      "componentType": 5126,
      "count": 150,
      "max": [
        0.5974686145782471,
        0.6234497427940369
      ],
      "min": [
        0.49825605750083923,
        0.48634350299835205
      ],
      "type": "VEC2"
    },
    {
      "bufferView": 0,
      "byteOffset": 24048,
      "componentType": 5125,
      "count": 312,
      "type": "SCALAR"
    }
  ],
  "asset": {
    "extras": {
      "author": "Spark (https://sketchfab.com/muammar.yacoob)",
      "license": "CC-BY-4.0 (http://creativecommons.org/licenses/by/4.0/)",
      "source": "https://sketchfab.com/3d-models/marceline-937c38464cd549ea8b238c0941a53486",
      "title": "Marceline"
    },
    "generator": "Sketchfab-12.64.0",
    "version": "2.0"
  },
  "bufferViews": [
    {
      "buffer": 0,
      "byteLength": 25296,
      "name": "floatBufferViews",
      "target": 34963,
      "byteOffset": 0
    },
    {
      "buffer": 0,
      "byteLength": 24344,
      "byteOffset": 25296,
      "byteStride": 8,
      "name": "floatBufferViews",
      "target": 34962
    },
    {
      "buffer": 0,
      "byteLength": 73032,
      "byteOffset": 49640,
      "byteStride": 12,
      "name": "floatBufferViews",
      "target": 34962
    },
    {
      "buffer": 0,
      "byteOffset": 122672,
      "byteLength": 776
    }
  ],
  "buffers": [
    {
      "name": "marceline",
      "byteLength": 123448,
      "uri": "data:application/octet-stream;base64,"
    }
  ],
  "images": [
    {
      "bufferView": 3,
      "mimeType": "image/png"
    }
  ],
  "materials": [
    {
      "doubleSided": true,
      "name": "LowPoly38",
      "pbrMetallicRoughness": {
        "baseColorTexture": {
          "index": 0,
          "texCoord": 0
        },
        "metallicFactor": 0,
        "roughnessFactor": 0.8040408206,
        "baseColorFactor": [
          1,
          1,
          1,
          1
        ]
      },
      "emissiveFactor": [
        0,
        0,
        0
      ],
      "alphaMode": "OPAQUE"
    }
  ],
  "meshes": [
    {
      "name": "0",
      "primitives": [
        {
          "attributes": {
            "NORMAL": 1,
            "POSITION": 0,
            "TEXCOORD_0": 2
          },
          "indices": 3,
          "material": 0,
          "mode": 4
        }
      ]
    },
    {
      "name": "Guitar_LowPoly38_0",
      "primitives": [
        {
          "attributes": {
            "NORMAL": 5,
            "POSITION": 4,
            "TEXCOORD_0": 6
          },
          "indices": 7,
          "material": 0,
          "mode": 4
        }
      ]
    },
    {
      "name": "Hat_LowPoly38_0",
      "primitives": [
        {
          "attributes": {
            "NORMAL": 9,
            "POSITION": 8,
            "TEXCOORD_0": 10
          },
          "indices": 11,
          "material": 0,
          "mode": 4
        }
      ]
    }
  ],
  "nodes": [
    {
      "children": [
        1
      ],
      "matrix": [
        1,
        0,
        0,
        0,
        0,
        2.220446049250313e-16,
        -1,
        0,
        0,
        1,
        2.220446049250313e-16,
        0,
        0,
        0,
        0,
        1
      ],
      "name": "Sketchfab_model"
    },
    {
      "children": [
        2
      ],
      "matrix": [
        1,
        0,
        0,
        0,
        0,
        0,
        1,
        0,
        0,
        -1,
        0,
        0,
        0,
        0,
        0,
        1
      ],
      "name": "e96b8a063b2b4b4e9b82d4288a5107e8.fbx"
    },
    {
      "children": [
        3
      ],
      "name": "RootNode"
    },
    {
      "children": [
        4,
        5,
        7
      ],
      "name": "Marceline"
    },
    {
      "mesh": 0,
      "name": "0"
    },
    {
      "children": [
        6
      ],
      "matrix": [
        1,
        0,
        0,
        0,
        0,
        1,
        0,
        0,
        0,
        0,
        1,
        0,
        -0.18571341037750244,
        1.3679200410842896,
        -0.22340570390224457,
        1
      ],
      "name": "Guitar"
    },
    {
      "mesh": 1,
      "name": "Guitar_LowPoly38_0"
    },
    {
      "children": [
        8
      ],
      "name": "Hat"
    },
    {
      "mesh": 2,
      "name": "Hat_LowPoly38_0"
    }
  ],
  "samplers": [
    {
      "magFilter": 9729,
      "minFilter": 9987,
      "wrapS": 10497,
      "wrapT": 10497
    }
  ],
  "scene": 0,
  "scenes": [
    {
      "name": "Sketchfab_Scene",
      "nodes": [
        0
      ]
    }
  ],
  "textures": [
    {
      "sampler": 0,
      "source": 0
    }
  ]
}
